<svg xmlns="http://www.w3.org/2000/svg" viewBox="0 0 128 128" fill="none" width="128" height="128">
  <defs>
    <linearGradient id="faviconGradient" x1="0%" y1="0%" x2="100%" y2="100%">
      <stop offset="0%" style="stop-color:#FF8C42;stop-opacity:1" />
      <stop offset="50%" style="stop-color:#E8553D;stop-opacity:1" />
      <stop offset="100%" style="stop-color:#8B4C9D;stop-opacity:1" />
    </linearGradient>
  </defs>
  
  <!-- Background circle/rect for better visibility -->
  <rect width="128" height="128" rx="24" fill="#1a1a1a" opacity="0.1"/>
  
  <!-- Signal lines (Wi-Fi style) - three curved lines above, well centered -->
  <path
    d="M 40 30 Q 64 24, 88 30"
    stroke="url(#faviconGradient)"
    stroke-width="3.5"
    fill="none"
    stroke-linecap="round"
  />
  <path
    d="M 32 42 Q 64 34, 96 42"
    stroke="url(#faviconGradient)"
    stroke-width="3.5"
    fill="none"
    stroke-linecap="round"
  />
  <path
    d="M 24 54 Q 64 44, 104 54"
    stroke="url(#faviconGradient)"
    stroke-width="3.5"
    fill="none"
    stroke-linecap="round"
  />
  
  <!-- Main E/T intertwined abstract shape, well centered and scaled -->
  <path
    d="M 44 68 C 44 68, 50 62, 62 66 C 74 70, 80 76, 80 82 C 80 88, 74 94, 68 96 C 62 98, 50 100, 44 100 C 38 100, 34 94, 34 88 C 34 82, 38 76, 44 68 Z"
    fill="url(#faviconGradient)"
  />
  <path
    d="M 56 78 C 60 76, 64 76, 68 78 M 50 88 C 54 86, 58 86, 64 88"
    stroke="#FFFFFF"
    stroke-width="2.5"
    stroke-linecap="round"
    fill="none"
  />
</svg>
